<svg xmlns="http://www.w3.org/2000/svg" version="1.1" xmlns:xlink="http://www.w3.org/1999/xlink" xmlns:svgjs="http://svgjs.dev/svgjs" width="2000" height="1500" viewBox="0 0 2000 1500"><rect width="2000" height="1500" fill="#ffffff"></rect><g transform="matrix(0.75,0,0,0.75,249.090909090909,592.5020612638504)"><svg viewBox="0 0 396 83" data-background-color="#ffffff" preserveAspectRatio="xMidYMid meet" height="419" width="2000" xmlns="http://www.w3.org/2000/svg" xmlns:xlink="http://www.w3.org/1999/xlink"><g id="tight-bounds" transform="matrix(1,0,0,1,0.2400000000000091,0.098500923151704)"><svg viewBox="0 0 395.52 82.8029981536966" height="82.8029981536966" width="395.52"><g><svg viewBox="0 0 677.1966321931932 141.7726321935238" height="82.8029981536966" width="395.52"><g><rect width="11.852901303862227" height="132.09169984195276" x="238.7951934446655" y="4.840466175785522" fill="#49beb7" opacity="1" stroke-width="0" stroke="transparent" fill-opacity="1" class="rect-qz-0" data-fill-palette-color="secondary" rx="1%" id="qz-0" data-palette-color="#49beb7"></rect></g><g transform="matrix(1,0,0,1,281.67663219319326,5.169052493800322)"><svg viewBox="0 0 395.52 131.43452720592316" height="131.43452720592316" width="395.52"><g id="textblocktransform"><svg viewBox="0 0 395.52 131.43452720592316" height="131.43452720592316" width="395.52" id="textblock"><g><svg viewBox="0 0 395.52 131.43452720592316" height="131.43452720592316" width="395.52"><g transform="matrix(1,0,0,1,0,0)"><svg width="395.52" viewBox="2.9 -35.156756726732006 107.28999999999999 35.656756726732006" height="131.43452720592316" data-palette-color="#085f63"><path d="M12.65 0.5L12.65 0.5Q9.6 0.5 7.13-1.05 4.65-2.6 3.25-5.2L3.25-5.2Q2.9-5.8 2.9-6.35L2.9-6.35Q2.9-7.2 3.55-7.73 4.2-8.25 4.85-8.25L4.85-8.25Q5.4-8.25 5.88-7.95 6.35-7.65 6.7-7.2L6.7-7.2Q7.7-5.5 9.2-4.5 10.7-3.5 12.65-3.5L12.65-3.5Q14.7-3.5 16.28-4.4 17.85-5.3 18.78-6.88 19.7-8.45 19.7-10.45L19.7-10.45 19.7-33Q19.7-33.85 20.33-34.43 20.95-35 21.85-35L21.85-35Q22.75-35 23.33-34.43 23.9-33.85 23.9-33L23.9-33 23.9-10.45Q23.9-7.4 22.43-4.9 20.95-2.4 18.43-0.95 15.9 0.5 12.65 0.5ZM34.7-35.05L34.7-35.05Q35.15-35.05 35.67-34.8 36.2-34.55 36.5-34.15L36.5-34.15 49.75-14.1 48-14.15 61.4-34.15Q62.05-35.1 63.1-35.05L63.1-35.05Q63.9-35 64.5-34.45 65.1-33.9 65.1-33L65.1-33 65.1-2.05Q65.1-1.2 64.5-0.6 63.9 0 63 0L63 0Q62.1 0 61.5-0.6 60.9-1.2 60.9-2.05L60.9-2.05 60.9-29.2 62.15-28.95 50.35-11Q50.05-10.65 49.62-10.4 49.2-10.15 48.75-10.15L48.75-10.15Q48.3-10.15 47.85-10.4 47.4-10.65 47.1-11L47.1-11 35.45-28.95 36.5-30.25 36.5-2.05Q36.5-1.2 35.95-0.6 35.4 0 34.55 0L34.55 0Q33.7 0 33.17-0.6 32.65-1.2 32.65-2.05L32.65-2.05 32.65-33Q32.65-33.8 33.22-34.43 33.8-35.05 34.7-35.05ZM84.85-29.85L85.95-29.8 74.2-1.2Q74-0.6 73.5-0.25 73 0.1 72.45 0.1L72.45 0.1Q71.5 0.1 71.05-0.4 70.6-0.9 70.6-1.6L70.6-1.6Q70.55-1.95 70.7-2.35L70.7-2.35 83.65-33.85Q83.9-34.55 84.42-34.88 84.95-35.2 85.6-35.15L85.6-35.15Q86.25-35.15 86.77-34.8 87.3-34.45 87.5-33.85L87.5-33.85 100.4-2.65Q100.55-2.25 100.55-1.85L100.55-1.85Q100.55-0.95 99.95-0.43 99.35 0.1 98.6 0.1L98.6 0.1Q98 0.1 97.5-0.25 97-0.6 96.75-1.25L96.75-1.25 84.85-29.85ZM94-9.35L76.7-9.35 78.4-13.25 93.25-13.25 94-9.35ZM110.19-32.95L110.19-2.05Q110.19-1.2 109.57-0.6 108.94 0 108.09 0L108.09 0Q107.14 0 106.59-0.6 106.04-1.2 106.04-2.05L106.04-2.05 106.04-32.95Q106.04-33.85 106.64-34.43 107.24-35 108.14-35L108.14-35Q108.99-35 109.59-34.43 110.19-33.85 110.19-32.95L110.19-32.95Z" opacity="1" transform="matrix(1,0,0,1,0,0)" fill="#085f63" class="wordmark-text-0" data-fill-palette-color="primary" id="text-0"></path></svg></g></svg></g></svg></g></svg></g><g><svg viewBox="0 0 207.76665599999998 141.7726321935238" height="141.7726321935238" width="207.76665599999998"><g><svg xmlns="http://www.w3.org/2000/svg" xmlns:xlink="http://www.w3.org/1999/xlink" version="1.1" x="8" y="0" viewBox="7.896 18.437 83.99999999999999 62.101" enable-background="new 0 0 100 100" xml:space="preserve" height="141.7726321935238" width="191.76665599999998" class="icon-icon-0" data-fill-palette-color="accent" id="icon-0"><g fill="#49beb7" data-fill-palette-color="accent"><path d="M89.774 36.738l-5.933 3.479-0.036 2.549-7.827 9.025c-0.668 0.769-0.584 1.932 0.186 2.6 0.767 0.668 1.931 0.585 2.597-0.184l4.965-5.721-0.12 8.373c0 0.983 0.668 1.808 1.573 2.05-0.018 0.102-0.026 0.208-0.026 0.316v17.813l-2.501 0.591c-1.094 0-1.979 0.888-1.979 1.98 0 1.094 0.885 0.918 1.979 0.918h4.275c0.064 0.007 0.134 0.011 0.204 0.011 1.092 0 1.978-0.887 1.978-1.98V59.225c0-0.094-0.009-0.186-0.021-0.277 0.993-0.177 1.747-1.042 1.747-2.088l1.061-18C91.893 37.688 90.944 36.738 89.774 36.738z" fill="#49beb7" data-fill-palette-color="accent"></path><circle cx="87.129" cy="32.018" r="4.1" fill="#49beb7" data-fill-palette-color="accent"></circle></g><g fill="#49beb7" data-fill-palette-color="accent"><g fill="#49beb7" data-fill-palette-color="accent"><path d="M59.327 75.076l-2.21 2.694 0.639 0.679c0.495 0.526 1.322 0.552 1.851 0.057l0.609-0.573c0.527-0.497 0.554-1.324 0.057-1.851L59.327 75.076z" fill="#49beb7" data-fill-palette-color="accent"></path><polygon points="58.18,73.854 55.969,76.549 56.538,77.155 58.749,74.46   " fill="#49beb7" data-fill-palette-color="accent"></polygon><polygon points="57.101,72.708 54.891,75.403 55.389,75.933 57.6,73.238   " fill="#49beb7" data-fill-palette-color="accent"></polygon><g fill="#49beb7" data-fill-palette-color="accent"><path d="M48.72 63.8c-0.292-0.312-0.7-0.444-1.093-0.404-0.05-0.005-0.099-0.009-0.149-0.009h-0.333-2.187H32.037l-1.106-7.079-0.193-1.237 6.492-1.016 5.271-0.823c0.576-0.09 0.971-0.631 0.881-1.208l-0.105-0.668c-0.089-0.576-0.63-0.971-1.208-0.881l-11.763 1.837-0.593-3.805c-0.112-0.715-0.782-1.202-1.497-1.091l-0.827 0.128c-0.715 0.112-1.202 0.78-1.091 1.495l1.034 6.619c-3.877 2.351-6.468 6.608-6.468 11.473 0 7.404 6.002 13.405 13.406 13.405 7.208 0 13.085-5.687 13.394-12.817l6.649 7.068 2.211-2.693L48.72 63.8zM34.27 78.457c-6.254 0-11.325-5.071-11.325-11.326 0-3.797 1.872-7.157 4.741-9.211l1.216 7.78c0.106 0.681 0.719 1.154 1.394 1.102 0.104 0.025 0.21 0.042 0.321 0.042h14.974c0.003 0.097 0.007 0.191 0.007 0.289C45.596 73.386 40.523 78.457 34.27 78.457z" fill="#49beb7" data-fill-palette-color="accent"></path><circle cx="26.869" cy="42.126" r="4.1" fill="#49beb7" data-fill-palette-color="accent"></circle></g></g><g fill="#49beb7" data-fill-palette-color="accent"><path d="M7.896 38.861l1.061 18c0 1.044 0.755 1.911 1.748 2.088-0.012 0.092-0.021 0.184-0.021 0.278v19.331c0 1.092 0.885 1.979 1.978 1.979 0.07 0 0.137-0.006 0.204-0.012h4.274c1.092 0 1.978 0.176 1.978-0.918 0-1.092-0.885-1.979-1.978-1.979l-2.5-0.593v-17.81c0-0.108-0.011-0.214-0.027-0.319 0.905-0.241 1.575-1.064 1.575-2.049l-0.12-8.373 4.964 5.723c0.666 0.77 1.83 0.852 2.6 0.185 0.768-0.667 0.851-1.83 0.184-2.6l-7.83-9.026-0.036-2.549-5.931-3.479C8.846 36.739 7.896 37.689 7.896 38.861z" fill="#49beb7" data-fill-palette-color="accent"></path><circle cx="12.662" cy="32.019" r="4.1" fill="#49beb7" data-fill-palette-color="accent"></circle></g></g><g fill="#49beb7" data-fill-palette-color="accent"><path d="M67.21 56.654h9.008c0.218 0 0.396-0.177 0.396-0.397 0-0.22-0.178-0.397-0.396-0.397H67.21c-0.219 0-0.396 0.178-0.396 0.397C66.812 56.476 66.989 56.654 67.21 56.654z" fill="#49beb7" data-fill-palette-color="accent"></path><path d="M66.505 56.325c0.17-0.138 0.197-0.389 0.059-0.56L60.9 48.76c-0.138-0.17-0.389-0.195-0.559-0.058s-0.197 0.389-0.058 0.559l5.663 7.006C66.085 56.436 66.335 56.464 66.505 56.325z" fill="#49beb7" data-fill-palette-color="accent"></path><path d="M75.965 57.191h-9.14c-1.15 0-2.084 0.933-2.084 2.085v18.616c0 1.151 0.932 2.086 2.084 2.086h9.14c1.15 0 2.085-0.933 2.085-2.086V59.276C78.05 58.125 77.117 57.191 75.965 57.191z" fill="#49beb7" data-fill-palette-color="accent"></path></g><polygon points="72.9,21 72.9,18.437 70.526,18.437 70.526,21 67.963,21 67.963,23.374 70.526,23.374 70.526,25.937 72.9,25.937   72.9,23.374 75.463,23.374 75.463,21 " fill="#49beb7" data-fill-palette-color="accent"></polygon></svg></g></svg></g></svg></g><defs></defs></svg><rect width="395.52" height="82.8029981536966" fill="none" stroke="none" visibility="hidden"></rect></g></svg></g></svg>